<svg width="310" height="121" viewBox="0 0 310 121" fill="none" xmlns="http://www.w3.org/2000/svg">
<path d="M71.8832 0.631348H26.8242V16.4441H60.8825L89.9069 93.5884H108.656L71.8832 0.631348Z" fill="black"/>
<path d="M47.4746 77.7761H1.33691V93.5887H47.4746V77.7761Z" fill="black"/>
<path fill-rule="evenodd" clip-rule="evenodd" d="M169.901 91.2365L169.85 91.1848C169.516 99.7652 166.858 106.346 161.766 110.821C158.474 113.733 153.727 115.822 148.48 116.978C143.224 118.137 137.406 118.374 131.924 117.531C120.998 115.85 111.121 109.795 110.158 97.8874L110.089 97.0305H125.3L125.404 97.703C126.218 102.99 130.973 105.665 136.594 106.223C139.379 106.5 142.298 106.24 144.878 105.54C147.47 104.838 149.655 103.711 151.033 102.311L151.055 102.289L151.078 102.269C151.966 101.497 152.664 100.345 153.198 98.8862C153.731 97.4308 154.085 95.7168 154.314 93.875C154.771 90.1866 154.715 86.1008 154.668 82.7522L154.668 82.745L154.662 82.3367C150.852 88.3104 145.882 91.6424 140.631 92.9413C134.817 94.3794 128.737 93.3055 123.618 90.6993C117.75 87.8777 113.826 82.7382 111.385 76.8382C108.946 70.9395 107.967 64.2302 108.014 58.156C107.952 46.3165 113.508 32.3567 124.709 27.0994C129.737 24.7007 135.931 23.751 141.679 25.1055C146.738 26.2973 151.432 29.2716 154.644 34.5591V26.1827H169.901V91.2365ZM150.711 74.2356C148.012 78.3726 144.038 81.0425 138.779 80.9642H138.764C133.584 80.9864 129.688 78.3219 127.052 74.2161C124.401 70.0873 123.05 64.523 123.05 58.9124C123.05 53.3016 124.401 47.7384 127.052 43.6117C129.687 39.508 133.583 36.8463 138.763 36.8724L138.777 36.8726L138.79 36.8722C144.135 36.7188 148.123 39.3349 150.806 43.4241C153.507 47.5403 154.868 53.1382 154.848 58.7964C154.827 64.454 153.426 70.0757 150.711 74.2356Z" fill="black"/>
<path d="M194.642 34.9164V26.1502H180.146V93.6356H195.356V52.2881C195.356 50.1563 195.705 48.1372 196.388 46.2265C197.07 44.315 198.019 42.6927 199.217 41.348L199.228 41.3324C200.437 39.9013 201.876 38.8189 203.599 38.0758L203.613 38.0702L203.625 38.0642C205.348 37.2476 207.292 36.8242 209.503 36.8242C213.426 36.8242 216.159 37.8945 217.859 39.8918L217.871 39.9049C219.606 41.8538 220.622 45.1279 220.78 49.9065V93.6356H235.99V46.3086C235.99 39.1532 233.995 33.6395 229.873 29.9379C225.789 26.2678 220.236 24.469 213.324 24.469C209.133 24.469 205.282 25.4856 201.808 27.5592C198.93 29.2106 196.551 32.0593 194.642 34.9164Z" fill="black"/>
<path fill-rule="evenodd" clip-rule="evenodd" d="M300.985 35.1871C295.621 28.4969 287.567 24.1556 276.887 24.4851C266.208 24.1556 258.154 28.4969 252.791 35.1871C247.441 41.8593 244.791 50.8284 244.793 59.7568C244.793 68.6852 247.445 77.6536 252.794 84.3237C258.16 91.0119 266.212 95.3503 276.887 95.0167C287.563 95.3503 295.615 91.0119 300.981 84.3237C306.331 77.6536 308.982 68.6852 308.982 59.7568C308.984 50.8284 306.335 41.8593 300.985 35.1871ZM289.511 75.6238C286.678 79.8852 282.48 82.6678 276.891 82.6452H276.885C271.295 82.6678 267.097 79.8852 264.264 75.6238C261.414 71.3389 259.96 65.5681 259.956 59.7523C259.954 53.9364 261.398 48.1673 264.247 43.8848C267.078 39.6263 271.278 36.8461 276.883 36.8724H276.891C282.498 36.8461 286.698 39.6263 289.529 43.8848C292.375 48.1673 293.822 53.9364 293.818 59.7523C293.814 65.5681 292.359 71.3389 289.511 75.6238Z" fill="black"/>
<path d="M180.666 116.787V103.162H185.522C186.583 103.162 187.461 103.355 188.157 103.741C188.853 104.127 189.374 104.654 189.72 105.324C190.066 105.989 190.239 106.739 190.239 107.573C190.239 108.411 190.064 109.165 189.714 109.835C189.368 110.5 188.845 111.028 188.144 111.418C187.447 111.804 186.571 111.997 185.516 111.997H182.176V110.254H185.33C185.999 110.254 186.543 110.138 186.96 109.908C187.376 109.673 187.683 109.353 187.878 108.95C188.073 108.546 188.17 108.087 188.17 107.573C188.17 107.058 188.073 106.601 187.878 106.202C187.683 105.803 187.374 105.49 186.953 105.264C186.536 105.038 185.986 104.925 185.303 104.925H182.722V116.787H180.666ZM198.587 112.549V106.568H200.584V116.787H198.628V115.017H198.521C198.287 115.563 197.909 116.017 197.39 116.381C196.875 116.74 196.236 116.92 195.468 116.92C194.812 116.92 194.231 116.776 193.725 116.487C193.224 116.195 192.829 115.762 192.541 115.19C192.257 114.618 192.115 113.91 192.115 113.068V106.568H194.104V112.828C194.104 113.525 194.297 114.079 194.683 114.491C195.068 114.904 195.569 115.11 196.187 115.11C196.559 115.11 196.93 115.017 197.296 114.831C197.671 114.645 197.979 114.363 198.223 113.986C198.47 113.609 198.593 113.13 198.587 112.549ZM202.882 116.787V106.568H204.805V108.191H204.912C205.097 107.641 205.425 107.209 205.897 106.894C206.37 106.575 206.906 106.415 207.505 106.415C207.63 106.415 207.776 106.42 207.944 106.428C208.117 106.437 208.254 106.448 208.351 106.462V108.364C208.271 108.342 208.129 108.318 207.924 108.291C207.721 108.26 207.517 108.245 207.312 108.245C206.842 108.245 206.423 108.345 206.054 108.544C205.692 108.739 205.403 109.012 205.191 109.362C204.978 109.708 204.871 110.103 204.871 110.546V116.787H202.882ZM213.736 116.993C212.728 116.993 211.861 116.778 211.133 116.348C210.412 115.913 209.852 115.303 209.459 114.518C209.067 113.729 208.872 112.804 208.872 111.744C208.872 110.697 209.067 109.775 209.459 108.976C209.852 108.178 210.402 107.555 211.108 107.107C211.818 106.659 212.646 106.435 213.596 106.435C214.173 106.435 214.731 106.531 215.273 106.721C215.813 106.912 216.298 107.211 216.729 107.619C217.16 108.027 217.499 108.557 217.747 109.209C217.994 109.857 218.119 110.644 218.119 111.571V112.276H209.997V110.786H216.169C216.169 110.263 216.064 109.799 215.852 109.396C215.637 108.988 215.339 108.666 214.953 108.431C214.571 108.196 214.124 108.078 213.609 108.078C213.05 108.078 212.562 108.216 212.145 108.491C211.732 108.761 211.414 109.116 211.188 109.555C210.966 109.99 210.855 110.462 210.855 110.972V112.136C210.855 112.819 210.973 113.4 211.213 113.879C211.457 114.359 211.796 114.724 212.231 114.977C212.666 115.226 213.175 115.35 213.756 115.35C214.132 115.35 214.475 115.297 214.787 115.19C215.097 115.079 215.366 114.915 215.592 114.698C215.818 114.48 215.99 114.212 216.111 113.893L217.992 114.232C217.842 114.786 217.571 115.272 217.181 115.689C216.795 116.102 216.31 116.423 215.725 116.654C215.144 116.88 214.481 116.993 213.736 116.993ZM225.846 116.787H223.664L228.567 103.162H230.942L235.846 116.787H233.662L229.811 105.637H229.704L225.846 116.787ZM226.212 111.451H233.29V113.181H226.212V111.451ZM239.493 103.162V116.787H237.437V103.162H239.493ZM247.846 116.787H245.664L250.568 103.162H252.942L257.846 116.787H255.664L251.812 105.637H251.704L247.846 116.787ZM248.212 111.451H255.29V113.181H248.212V111.451ZM263.399 120.831C262.588 120.831 261.888 120.725 261.303 120.512C260.722 120.299 260.248 120.018 259.879 119.667C259.511 119.317 259.236 118.933 259.055 118.516L260.765 117.811C260.883 118.006 261.043 118.213 261.242 118.43C261.447 118.652 261.722 118.84 262.067 118.995C262.418 119.151 262.868 119.228 263.418 119.228C264.173 119.228 264.795 119.044 265.288 118.676C265.779 118.312 266.027 117.731 266.027 116.933V114.924H265.9C265.779 115.141 265.608 115.383 265.381 115.649C265.159 115.915 264.853 116.146 264.463 116.341C264.073 116.536 263.564 116.634 262.938 116.634C262.131 116.634 261.404 116.445 260.757 116.068C260.113 115.687 259.604 115.126 259.226 114.385C258.854 113.64 258.669 112.724 258.669 111.638C258.669 110.551 258.852 109.62 259.22 108.843C259.593 108.067 260.104 107.473 260.751 107.06C261.398 106.644 262.131 106.435 262.952 106.435C263.588 106.435 264.099 106.541 264.488 106.754C264.88 106.963 265.183 107.207 265.401 107.486C265.623 107.766 265.793 108.012 265.914 108.225H266.06V106.568H268.01V117.013C268.01 117.891 267.805 118.612 267.397 119.175C266.988 119.738 266.436 120.155 265.74 120.426C265.048 120.696 264.268 120.831 263.399 120.831ZM263.379 114.984C263.95 114.984 264.434 114.851 264.828 114.585C265.227 114.314 265.53 113.928 265.734 113.427C265.941 112.921 266.046 112.316 266.046 111.611C266.046 110.923 265.945 110.318 265.74 109.795C265.535 109.271 265.237 108.863 264.841 108.571C264.448 108.274 263.96 108.125 263.379 108.125C262.781 108.125 262.281 108.28 261.882 108.591C261.482 108.897 261.18 109.314 260.977 109.841C260.776 110.369 260.677 110.959 260.677 111.611C260.677 112.281 260.78 112.868 260.983 113.374C261.188 113.879 261.49 114.274 261.888 114.558C262.291 114.842 262.788 114.984 263.379 114.984ZM274.707 116.993C273.699 116.993 272.831 116.778 272.104 116.348C271.383 115.913 270.823 115.303 270.427 114.518C270.037 113.729 269.842 112.804 269.842 111.744C269.842 110.697 270.037 109.775 270.427 108.976C270.823 108.178 271.373 107.555 272.079 107.107C272.788 106.659 273.617 106.435 274.566 106.435C275.143 106.435 275.701 106.531 276.243 106.721C276.783 106.912 277.269 107.211 277.7 107.619C278.13 108.027 278.47 108.557 278.717 109.209C278.965 109.857 279.09 110.644 279.09 111.571V112.276H270.967V110.786H277.14C277.14 110.263 277.035 109.799 276.822 109.396C276.608 108.988 276.309 108.666 275.923 108.431C275.541 108.196 275.095 108.078 274.58 108.078C274.02 108.078 273.533 108.216 273.116 108.491C272.702 108.761 272.385 109.116 272.159 109.555C271.936 109.99 271.825 110.462 271.825 110.972V112.136C271.825 112.819 271.944 113.4 272.184 113.879C272.428 114.359 272.767 114.724 273.202 114.977C273.636 115.226 274.145 115.35 274.726 115.35C275.103 115.35 275.446 115.297 275.758 115.19C276.068 115.079 276.337 114.915 276.563 114.698C276.789 114.48 276.961 114.212 277.081 113.893L278.963 114.232C278.813 114.786 278.542 115.272 278.152 115.689C277.766 116.102 277.28 116.423 276.695 116.654C276.114 116.88 275.452 116.993 274.707 116.993ZM282.911 110.719V116.787H280.922V106.568H282.831V108.231H282.958C283.194 107.69 283.56 107.256 284.063 106.927C284.568 106.599 285.204 106.435 285.972 106.435C286.668 106.435 287.278 106.581 287.801 106.874C288.325 107.162 288.731 107.593 289.019 108.165C289.306 108.737 289.45 109.444 289.45 110.287V116.787H287.462V110.527C287.462 109.786 287.269 109.207 286.883 108.79C286.497 108.369 285.968 108.158 285.294 108.158C284.831 108.158 284.422 108.258 284.063 108.458C283.708 108.657 283.426 108.95 283.217 109.336C283.014 109.717 282.911 110.178 282.911 110.719ZM296.514 106.568V108.165H290.932V106.568H296.514ZM292.429 104.12H294.418V113.786C294.418 114.172 294.477 114.463 294.592 114.658C294.707 114.848 294.855 114.979 295.038 115.05C295.223 115.117 295.426 115.15 295.642 115.15C295.802 115.15 295.943 115.139 296.062 115.117C296.181 115.095 296.274 115.077 296.34 115.064L296.701 116.707C296.584 116.751 296.42 116.796 296.208 116.84C295.995 116.889 295.728 116.915 295.41 116.92C294.886 116.929 294.399 116.836 293.946 116.64C293.494 116.445 293.127 116.144 292.849 115.736C292.57 115.328 292.429 114.815 292.429 114.199V104.12ZM305.832 109.063L304.03 109.382C303.954 109.152 303.835 108.932 303.671 108.724C303.511 108.515 303.293 108.345 303.018 108.211C302.743 108.078 302.4 108.012 301.987 108.012C301.423 108.012 300.953 108.138 300.577 108.391C300.199 108.639 300.012 108.961 300.012 109.356C300.012 109.697 300.138 109.972 300.39 110.181C300.643 110.389 301.051 110.56 301.614 110.693L303.238 111.065C304.178 111.283 304.878 111.618 305.34 112.07C305.802 112.522 306.032 113.11 306.032 113.833C306.032 114.445 305.855 114.99 305.5 115.469C305.149 115.944 304.66 116.317 304.03 116.587C303.404 116.858 302.679 116.993 301.854 116.993C300.71 116.993 299.776 116.749 299.052 116.261C298.331 115.769 297.887 115.07 297.723 114.165L299.645 113.873C299.766 114.374 300.012 114.753 300.384 115.01C300.756 115.263 301.242 115.39 301.841 115.39C302.494 115.39 303.014 115.254 303.404 114.984C303.794 114.709 303.989 114.374 303.989 113.979C303.989 113.66 303.87 113.392 303.63 113.174C303.394 112.957 303.034 112.793 302.546 112.682L300.817 112.303C299.864 112.085 299.158 111.74 298.702 111.265C298.249 110.79 298.023 110.19 298.023 109.462C298.023 108.859 298.191 108.331 298.528 107.879C298.865 107.426 299.331 107.074 299.924 106.821C300.519 106.564 301.199 106.435 301.967 106.435C303.071 106.435 303.94 106.675 304.576 107.154C305.21 107.628 305.629 108.265 305.832 109.063Z" fill="black"/>
</svg>
