<svg width="895" height="305" viewBox="0 0 895 305" fill="none" xmlns="http://www.w3.org/2000/svg">
<g clip-path="url(#clip0_420_12)">
<path d="M499.3 0.5C441.7 0.5 394.9 47.2 394.9 104.9C394.9 162.6 441.6 209.3 499.3 209.3C557 209.3 603.7 162.6 603.7 104.9C603.6 47.3 556.9 0.6 499.3 0.5ZM499.3 170.1C463.3 170.1 434.1 140.9 434.1 104.9C434.1 68.9 463.3 39.7 499.3 39.7C535.3 39.7 564.5 68.9 564.5 104.9C564.5 140.9 535.3 170.1 499.3 170.1Z" fill="black"/>
<path d="M355.2 0.900049C351.6 0.500049 348.1 0.300049 344.5 0.300049C342.7 0.300049 341 0.300049 339.3 0.400049C337.6 0.500049 335.8 0.600049 334.1 0.700049C327.1 1.20005 320.1 2.40005 313.3 4.30005C299.4 8.00005 286.3 14.6 275 23.5C263.4 32.7 254.2 44.5001 247.9 57.9001C244.8 64.6001 242.5 71.7 241 78.9C240.3 82.5 239.8 86.1 239.4 89.7C239.3 91.5 239.1 93.3 239.1 95.1L239 97.8V100.3L239.1 135.3L239.2 170.2L239.4 205.1H278.5L278.7 170.2L278.8 135.3L278.9 100.3V98.3V96.6C278.9 95.5 279.1 94.4 279.1 93.3C279.3 91.1 279.7 89 280.1 86.8C281 82.6 282.3 78.5 284.1 74.6C287.7 66.8 293.1 60 299.8 54.6C306.8 49 314.9 44.9 323.5 42.6C327.9 41.4 332.5 40.6001 337.1 40.2001C338.3 40.1001 339.4 40 340.6 40C341.8 40 343 39.9001 344.1 39.9001C346.3 39.9001 348.6 40.0001 350.8 40.2001C359.7 41.1001 368.3 43.8001 376.2 48.2001L395.7 14.3C383.3 7.10005 369.5 2.50005 355.2 0.900049Z" fill="black"/>
<path d="M105.3 0.000105588C47.7001 -0.499894 0.500106 45.8001 0.000105588 103.4C-0.499894 161 45.8001 208.2 103.4 208.7H139.6V169.6H105.3C69.3001 170 39.7001 141.2 39.3001 105.1C38.9001 69.0001 67.7001 39.5001 103.8 39.1001C104.3 39.1001 104.8 39.1001 105.3 39.1001C141.3 39.1001 170.5 68.3001 170.7 104.3V200.4C170.7 236.1 141.6 265.2 106 265.6C88.9001 265.5 72.6001 258.6 60.6001 246.5L32.9001 274.2C52.1001 293.5 78.1001 304.5 105.3 304.7H106.7C163.6 303.9 209.3 257.7 209.6 200.8V101.7C208.2 45.2001 161.9 0.100106 105.3 0.000105588Z" fill="black"/>
<path d="M729.701 0.5C672.101 0.5 625.301 47.2 625.401 104.9C625.401 162.5 672.101 209.2 729.701 209.2H765.401V170.1H729.701C693.701 170.1 664.501 140.9 664.501 104.9C664.501 68.9 693.701 39.7 729.701 39.7C763.501 39.7 791.701 65.6 794.701 99.3H794.6V299.7H833.701V104.9C833.701 47.3 787.201 0.5 729.701 0.5Z" fill="black"/>
<path d="M894.2 15.2C894.2 23.8 887.5 30.5 878.9 30.5C870.3 30.5 863.7 23.8 863.7 15.3C863.7 6.8 870.4 0 879 0C887.7 0 894.2 6.6 894.2 15.2ZM892.6 15.2C892.6 7.5 886.8 1.6 879 1.6C871.2 1.6 865.3 7.6 865.3 15.2C865.3 22.8 871.2 28.8 878.9 28.8C886.7 28.9 892.6 22.8 892.6 15.2ZM882.8 17.7L886.9 23.9H884.6L880.8 18.1C880.4 18.1 880.2 18.1 879.8 18.1H875.3V24H873V6.5H879.7C884 6.5 886.6 8.7 886.6 12.3C886.7 15 885.2 16.9 882.8 17.7ZM884.5 12.3C884.5 9.8 882.7 8.4 879.7 8.4H875.3V16.3H879.7C882.7 16.3 884.5 14.8 884.5 12.3Z" fill="black"/>
</g>
<defs>
<clipPath id="clip0_420_12">
<rect width="894.2" height="304.8" fill="white"/>
</clipPath>
</defs>
</svg>
