<svg width="120" height="120" viewBox="0 0 120 120" fill="none" xmlns="http://www.w3.org/2000/svg">
<rect width="120" height="120" rx="20" fill="black"/>
<g clip-path="url(#clip0_427_28)">
<path d="M73.8141 59.7368C73.8141 52.2468 67.7421 46.1748 60.2521 46.1748C52.7621 46.1748 46.6901 52.2468 46.6901 59.7368C46.6901 67.2268 52.7621 73.2988 60.2521 73.2988C67.7421 73.2988 73.8141 67.2268 73.8141 59.7368ZM58.0594 52.0566C55.7334 53.3029 54.0536 55.1289 53.0014 56.5429C52.6023 57.0793 51.753 56.7047 51.8835 56.0497C52.6846 52.0477 55.5235 51.0377 57.7172 50.8828C58.387 50.8357 58.6507 51.7398 58.0594 52.0566ZM49.1475 46.6425L44.0787 41.8522C44.669 40.7794 45.0348 39.5654 45.0348 38.2543C45.0348 34.1014 41.6713 30.7378 37.5173 30.7378C33.3634 30.7378 29.994 34.0994 29.994 38.2543C29.994 42.4092 33.3624 45.7737 37.5173 45.7737C38.9814 45.7737 40.3366 45.3373 41.4928 44.6136L46.5548 49.3991C47.3187 48.3871 48.1826 47.4604 49.1475 46.6425ZM37.0564 33.8856C35.3453 34.8025 34.1107 36.145 33.3369 37.1854C33.0437 37.5796 32.4181 37.3041 32.5152 36.8226C33.1045 33.8797 35.1923 33.1364 36.8054 33.0227C37.2967 32.9874 37.4909 33.6522 37.0564 33.8856ZM70.5888 46.0434L77.3247 34.7084C77.9876 34.8976 78.676 35.0349 79.3978 35.0349C83.5595 35.0349 86.9231 31.6694 86.9231 27.5155C86.9231 23.3626 83.5595 20 79.3978 20C75.2439 20 71.8813 23.3616 71.8813 27.5155C71.8813 29.5777 72.7129 31.4409 74.0573 32.8011L67.343 44.1047C68.4962 44.6264 69.5847 45.2795 70.5888 46.0434ZM74.6722 25.8367C75.2615 22.8938 77.3493 22.1505 78.9624 22.0368C79.4547 22.0015 79.6488 22.6663 79.2134 22.8997C77.5022 23.8166 76.2676 25.1591 75.4939 26.1995C75.2007 26.5937 74.5751 26.3182 74.6722 25.8367ZM93.8198 55.5329C90.5857 55.5329 87.8468 57.5883 86.7838 60.4527L77.4257 59.5289C77.4257 59.5995 77.4365 59.6672 77.4365 59.7368C77.4365 60.9567 77.3022 62.1481 77.059 63.2984L86.4132 64.2222C86.979 67.8112 90.0689 70.5629 93.8188 70.5629C97.9718 70.5629 101.333 67.2013 101.333 63.0484C101.333 58.8984 97.9718 55.5329 93.8198 55.5329ZM93.456 58.4247C91.7448 59.3416 90.5102 60.6841 89.7365 61.7245C89.4433 62.1187 88.8176 61.8432 88.9147 61.3617C89.5041 58.4188 91.5918 57.6755 93.2049 57.5618C93.6972 57.5275 93.8914 58.1913 93.456 58.4247ZM67.9951 85.0937L65.9024 75.9514C64.7218 76.3623 63.4931 76.6574 62.2114 76.8045L64.307 85.9479C61.9044 87.205 60.2462 89.6889 60.2462 92.5896C60.2462 96.7426 63.6078 100.102 67.7696 100.102C71.9225 100.102 75.2841 96.7406 75.2841 92.5896C75.289 88.5132 72.0411 85.2134 67.9951 85.0937ZM66.9625 88.4328C65.2513 89.3496 64.0167 90.6921 63.243 91.7326C62.9498 92.1268 62.3242 91.8512 62.4212 91.3697C63.0106 88.4269 65.0983 87.6836 66.7115 87.5698C67.2037 87.5345 67.3979 88.1994 66.9625 88.4328ZM43.456 63.3661L31.8072 67.269C30.4627 65.2155 28.1494 63.8544 25.5165 63.8544C21.3626 63.8544 18 67.218 18 71.3709C18 75.5287 21.3616 78.8923 25.5165 78.8923C29.6675 78.8923 33.0379 75.5287 33.0379 71.3709C33.0379 71.1973 33.0006 71.0375 32.9869 70.8669L44.6729 66.9542C44.1454 65.8167 43.7266 64.6193 43.456 63.3661ZM25.1223 67.2229C23.4111 68.1398 22.1765 69.4822 21.4028 70.5227C21.1096 70.9169 20.4839 70.6413 20.581 70.1598C21.1704 67.217 23.2581 66.4737 24.8712 66.3599C25.3635 66.3246 25.5577 66.9895 25.1223 67.2229Z" fill="white"/>
</g>
<defs>
<clipPath id="clip0_427_28">
<rect width="83.3333" height="80.1022" fill="white" transform="translate(18 20)"/>
</clipPath>
</defs>
</svg>
